<mxfile host="app.diagrams.net" agent="Mozilla/5.0 (Windows NT 10.0; Win64; x64) AppleWebKit/537.36 (KHTML, like Gecko) Chrome/133.0.0.0 Safari/537.36" scale="1" border="0" version="26.0.16">
  <diagram name="第 1 页" id="rai6ZjkG1xXohnRj1gIq">
    <mxGraphModel dx="1221" dy="618" grid="1" gridSize="10" guides="1" tooltips="1" connect="1" arrows="1" fold="1" page="1" pageScale="1" pageWidth="827" pageHeight="1169" math="0" shadow="0">
      <root>
        <mxCell id="0" />
        <mxCell id="1" parent="0" />
        <mxCell id="4cd8tRVKApYLqjwjLo3V-38" style="edgeStyle=none;rounded=0;orthogonalLoop=1;jettySize=auto;html=1;exitX=0.5;exitY=0;exitDx=0;exitDy=0;entryX=0.5;entryY=1;entryDx=0;entryDy=0;" parent="1" source="4cd8tRVKApYLqjwjLo3V-4" target="4cd8tRVKApYLqjwjLo3V-37" edge="1">
          <mxGeometry relative="1" as="geometry" />
        </mxCell>
        <mxCell id="4cd8tRVKApYLqjwjLo3V-48" style="edgeStyle=none;rounded=0;orthogonalLoop=1;jettySize=auto;html=1;exitX=1;exitY=0.5;exitDx=0;exitDy=0;entryX=0;entryY=0.5;entryDx=0;entryDy=0;" parent="1" source="4cd8tRVKApYLqjwjLo3V-4" target="4cd8tRVKApYLqjwjLo3V-47" edge="1">
          <mxGeometry relative="1" as="geometry" />
        </mxCell>
        <mxCell id="4cd8tRVKApYLqjwjLo3V-91" style="edgeStyle=none;rounded=0;orthogonalLoop=1;jettySize=auto;html=1;exitX=1;exitY=1;exitDx=0;exitDy=0;entryX=0;entryY=0.5;entryDx=0;entryDy=0;" parent="1" source="4cd8tRVKApYLqjwjLo3V-4" target="4cd8tRVKApYLqjwjLo3V-85" edge="1">
          <mxGeometry relative="1" as="geometry" />
        </mxCell>
        <mxCell id="4cd8tRVKApYLqjwjLo3V-4" value="" style="ellipse;whiteSpace=wrap;html=1;aspect=fixed;" parent="1" vertex="1">
          <mxGeometry x="375" y="130" width="30" height="30" as="geometry" />
        </mxCell>
        <mxCell id="4cd8tRVKApYLqjwjLo3V-55" style="edgeStyle=none;rounded=0;orthogonalLoop=1;jettySize=auto;html=1;exitX=1;exitY=0.5;exitDx=0;exitDy=0;entryX=0;entryY=0.5;entryDx=0;entryDy=0;" parent="1" source="4cd8tRVKApYLqjwjLo3V-9" target="4cd8tRVKApYLqjwjLo3V-53" edge="1">
          <mxGeometry relative="1" as="geometry" />
        </mxCell>
        <mxCell id="4cd8tRVKApYLqjwjLo3V-59" style="edgeStyle=none;rounded=0;orthogonalLoop=1;jettySize=auto;html=1;exitX=1;exitY=0.5;exitDx=0;exitDy=0;entryX=0;entryY=0.5;entryDx=0;entryDy=0;" parent="1" source="4cd8tRVKApYLqjwjLo3V-9" target="4cd8tRVKApYLqjwjLo3V-58" edge="1">
          <mxGeometry relative="1" as="geometry" />
        </mxCell>
        <mxCell id="4cd8tRVKApYLqjwjLo3V-9" value="" style="ellipse;whiteSpace=wrap;html=1;aspect=fixed;" parent="1" vertex="1">
          <mxGeometry x="375" y="215" width="30" height="30" as="geometry" />
        </mxCell>
        <mxCell id="4cd8tRVKApYLqjwjLo3V-66" style="edgeStyle=none;rounded=0;orthogonalLoop=1;jettySize=auto;html=1;exitX=1;exitY=0.5;exitDx=0;exitDy=0;entryX=0;entryY=0.5;entryDx=0;entryDy=0;" parent="1" source="4cd8tRVKApYLqjwjLo3V-10" target="4cd8tRVKApYLqjwjLo3V-64" edge="1">
          <mxGeometry relative="1" as="geometry" />
        </mxCell>
        <mxCell id="4cd8tRVKApYLqjwjLo3V-89" style="edgeStyle=none;rounded=0;orthogonalLoop=1;jettySize=auto;html=1;exitX=1;exitY=1;exitDx=0;exitDy=0;entryX=0;entryY=0.5;entryDx=0;entryDy=0;" parent="1" source="4cd8tRVKApYLqjwjLo3V-10" target="4cd8tRVKApYLqjwjLo3V-86" edge="1">
          <mxGeometry relative="1" as="geometry" />
        </mxCell>
        <mxCell id="4cd8tRVKApYLqjwjLo3V-10" value="" style="ellipse;whiteSpace=wrap;html=1;aspect=fixed;" parent="1" vertex="1">
          <mxGeometry x="375" y="290" width="30" height="30" as="geometry" />
        </mxCell>
        <mxCell id="4cd8tRVKApYLqjwjLo3V-20" style="edgeStyle=none;rounded=0;orthogonalLoop=1;jettySize=auto;html=1;exitX=1;exitY=0.5;exitDx=0;exitDy=0;entryX=0;entryY=0.5;entryDx=0;entryDy=0;" parent="1" source="4cd8tRVKApYLqjwjLo3V-12" target="4cd8tRVKApYLqjwjLo3V-9" edge="1">
          <mxGeometry relative="1" as="geometry" />
        </mxCell>
        <mxCell id="4cd8tRVKApYLqjwjLo3V-12" value="" style="rounded=0;whiteSpace=wrap;html=1;" parent="1" vertex="1">
          <mxGeometry x="290" y="220" width="10" height="20" as="geometry" />
        </mxCell>
        <mxCell id="4cd8tRVKApYLqjwjLo3V-13" value="" style="group" parent="1" vertex="1" connectable="0">
          <mxGeometry x="170" y="215" width="30" height="30" as="geometry" />
        </mxCell>
        <mxCell id="4cd8tRVKApYLqjwjLo3V-1" value="" style="ellipse;whiteSpace=wrap;html=1;aspect=fixed;container=0;" parent="4cd8tRVKApYLqjwjLo3V-13" vertex="1">
          <mxGeometry width="30" height="30" as="geometry" />
        </mxCell>
        <mxCell id="4cd8tRVKApYLqjwjLo3V-3" value="" style="ellipse;whiteSpace=wrap;html=1;aspect=fixed;fillColor=#000000;container=0;" parent="4cd8tRVKApYLqjwjLo3V-13" vertex="1">
          <mxGeometry x="10.940000000000005" y="10.935500000000005" width="8.125" height="8.125" as="geometry" />
        </mxCell>
        <mxCell id="4cd8tRVKApYLqjwjLo3V-23" style="edgeStyle=none;rounded=0;orthogonalLoop=1;jettySize=auto;html=1;exitX=1;exitY=0.5;exitDx=0;exitDy=0;entryX=0;entryY=0.5;entryDx=0;entryDy=0;" parent="1" source="4cd8tRVKApYLqjwjLo3V-14" target="4cd8tRVKApYLqjwjLo3V-4" edge="1">
          <mxGeometry relative="1" as="geometry" />
        </mxCell>
        <mxCell id="4cd8tRVKApYLqjwjLo3V-14" value="" style="rounded=0;whiteSpace=wrap;html=1;" parent="1" vertex="1">
          <mxGeometry x="290" y="170" width="10" height="20" as="geometry" />
        </mxCell>
        <mxCell id="4cd8tRVKApYLqjwjLo3V-25" style="edgeStyle=none;rounded=0;orthogonalLoop=1;jettySize=auto;html=1;exitX=1;exitY=0.5;exitDx=0;exitDy=0;entryX=0;entryY=0.5;entryDx=0;entryDy=0;" parent="1" source="4cd8tRVKApYLqjwjLo3V-17" target="4cd8tRVKApYLqjwjLo3V-10" edge="1">
          <mxGeometry relative="1" as="geometry" />
        </mxCell>
        <mxCell id="4cd8tRVKApYLqjwjLo3V-17" value="" style="rounded=0;whiteSpace=wrap;html=1;" parent="1" vertex="1">
          <mxGeometry x="290" y="270" width="10" height="20" as="geometry" />
        </mxCell>
        <mxCell id="4cd8tRVKApYLqjwjLo3V-19" style="edgeStyle=none;rounded=0;orthogonalLoop=1;jettySize=auto;html=1;exitX=1;exitY=0.5;exitDx=0;exitDy=0;entryX=0;entryY=0.5;entryDx=0;entryDy=0;" parent="1" source="4cd8tRVKApYLqjwjLo3V-1" target="4cd8tRVKApYLqjwjLo3V-12" edge="1">
          <mxGeometry relative="1" as="geometry" />
        </mxCell>
        <mxCell id="4cd8tRVKApYLqjwjLo3V-21" style="edgeStyle=none;rounded=0;orthogonalLoop=1;jettySize=auto;html=1;exitX=1;exitY=0;exitDx=0;exitDy=0;entryX=0;entryY=0.5;entryDx=0;entryDy=0;" parent="1" source="4cd8tRVKApYLqjwjLo3V-1" target="4cd8tRVKApYLqjwjLo3V-14" edge="1">
          <mxGeometry relative="1" as="geometry" />
        </mxCell>
        <mxCell id="4cd8tRVKApYLqjwjLo3V-24" style="edgeStyle=none;rounded=0;orthogonalLoop=1;jettySize=auto;html=1;exitX=1;exitY=1;exitDx=0;exitDy=0;entryX=0;entryY=0.5;entryDx=0;entryDy=0;" parent="1" source="4cd8tRVKApYLqjwjLo3V-1" target="4cd8tRVKApYLqjwjLo3V-17" edge="1">
          <mxGeometry relative="1" as="geometry" />
        </mxCell>
        <mxCell id="4cd8tRVKApYLqjwjLo3V-26" value="&lt;font style=&quot;font-size: 10px;&quot;&gt;Enter username&lt;/font&gt;" style="text;html=1;align=center;verticalAlign=middle;whiteSpace=wrap;rounded=0;" parent="1" vertex="1">
          <mxGeometry x="255" y="155" width="80" height="13" as="geometry" />
        </mxCell>
        <mxCell id="4cd8tRVKApYLqjwjLo3V-30" value="&lt;font style=&quot;font-size: 10px;&quot;&gt;Enter&amp;nbsp;&lt;/font&gt;&lt;span style=&quot;font-size: 10px; background-color: transparent; color: light-dark(rgb(0, 0, 0), rgb(255, 255, 255));&quot;&gt;password&lt;/span&gt;" style="text;html=1;align=center;verticalAlign=middle;whiteSpace=wrap;rounded=0;" parent="1" vertex="1">
          <mxGeometry x="265" y="257.5" width="60" height="13" as="geometry" />
        </mxCell>
        <mxCell id="4cd8tRVKApYLqjwjLo3V-31" value="&lt;font style=&quot;font-size: 10px;&quot;&gt;Check the Remember me box&lt;/font&gt;" style="text;html=1;align=center;verticalAlign=middle;whiteSpace=wrap;rounded=0;" parent="1" vertex="1">
          <mxGeometry x="227.5" y="201.5" width="135" height="17" as="geometry" />
        </mxCell>
        <mxCell id="4cd8tRVKApYLqjwjLo3V-32" value="&lt;font style=&quot;font-size: 10px;&quot;&gt;Username entered&lt;/font&gt;" style="text;html=1;align=center;verticalAlign=middle;whiteSpace=wrap;rounded=0;" parent="1" vertex="1">
          <mxGeometry x="385" y="119.5" width="96" height="13" as="geometry" />
        </mxCell>
        <mxCell id="4cd8tRVKApYLqjwjLo3V-35" value="&lt;font style=&quot;font-size: 10px;&quot;&gt;Password entered&lt;/font&gt;" style="text;html=1;align=center;verticalAlign=middle;whiteSpace=wrap;rounded=0;" parent="1" vertex="1">
          <mxGeometry x="342" y="277" width="96" height="13" as="geometry" />
        </mxCell>
        <mxCell id="4cd8tRVKApYLqjwjLo3V-36" value="&lt;font style=&quot;font-size: 10px;&quot;&gt;Remember me box&lt;/font&gt;&lt;div&gt;&lt;font style=&quot;font-size: 10px;&quot;&gt;checked&amp;nbsp;&lt;/font&gt;&lt;/div&gt;" style="text;html=1;align=center;verticalAlign=middle;whiteSpace=wrap;rounded=0;" parent="1" vertex="1">
          <mxGeometry x="371" y="197" width="100" height="30" as="geometry" />
        </mxCell>
        <mxCell id="4cd8tRVKApYLqjwjLo3V-42" style="edgeStyle=none;rounded=0;orthogonalLoop=1;jettySize=auto;html=1;exitX=0.5;exitY=0;exitDx=0;exitDy=0;entryX=0.5;entryY=1;entryDx=0;entryDy=0;" parent="1" source="4cd8tRVKApYLqjwjLo3V-37" target="4cd8tRVKApYLqjwjLo3V-41" edge="1">
          <mxGeometry relative="1" as="geometry" />
        </mxCell>
        <mxCell id="4cd8tRVKApYLqjwjLo3V-37" value="" style="rounded=0;whiteSpace=wrap;html=1;" parent="1" vertex="1">
          <mxGeometry x="385" y="83" width="10" height="20" as="geometry" />
        </mxCell>
        <mxCell id="4cd8tRVKApYLqjwjLo3V-39" value="&lt;font style=&quot;font-size: 10px;&quot;&gt;Click Login&lt;/font&gt;" style="text;html=1;align=center;verticalAlign=middle;whiteSpace=wrap;rounded=0;" parent="1" vertex="1">
          <mxGeometry x="395" y="80" width="60" height="20" as="geometry" />
        </mxCell>
        <mxCell id="4cd8tRVKApYLqjwjLo3V-104" style="edgeStyle=none;rounded=0;orthogonalLoop=1;jettySize=auto;html=1;exitX=0;exitY=1;exitDx=0;exitDy=0;entryX=1;entryY=0.25;entryDx=0;entryDy=0;" parent="1" source="4cd8tRVKApYLqjwjLo3V-41" target="4cd8tRVKApYLqjwjLo3V-100" edge="1">
          <mxGeometry relative="1" as="geometry" />
        </mxCell>
        <mxCell id="4cd8tRVKApYLqjwjLo3V-41" value="" style="ellipse;whiteSpace=wrap;html=1;aspect=fixed;" parent="1" vertex="1">
          <mxGeometry x="375" y="23" width="30" height="30" as="geometry" />
        </mxCell>
        <mxCell id="4cd8tRVKApYLqjwjLo3V-43" value="&lt;font style=&quot;font-size: 10px;&quot;&gt;Empty password&amp;nbsp; message showed&lt;/font&gt;" style="text;html=1;align=center;verticalAlign=middle;whiteSpace=wrap;rounded=0;" parent="1" vertex="1">
          <mxGeometry x="392" width="108" height="30" as="geometry" />
        </mxCell>
        <mxCell id="4cd8tRVKApYLqjwjLo3V-44" value="&lt;font style=&quot;text-wrap-mode: nowrap; font-size: 10px;&quot;&gt;Ready to&amp;nbsp;&lt;/font&gt;&lt;span style=&quot;font-size: 10px; text-wrap-mode: nowrap; background-color: transparent; color: light-dark(rgb(0, 0, 0), rgb(255, 255, 255));&quot;&gt;type&lt;/span&gt;" style="text;html=1;align=center;verticalAlign=middle;whiteSpace=wrap;rounded=0;" parent="1" vertex="1">
          <mxGeometry x="147.5" y="180" width="75" height="30" as="geometry" />
        </mxCell>
        <mxCell id="4cd8tRVKApYLqjwjLo3V-120" style="edgeStyle=none;rounded=0;orthogonalLoop=1;jettySize=auto;html=1;exitX=1;exitY=0.5;exitDx=0;exitDy=0;entryX=0;entryY=0.5;entryDx=0;entryDy=0;" parent="1" source="4cd8tRVKApYLqjwjLo3V-45" target="4cd8tRVKApYLqjwjLo3V-116" edge="1">
          <mxGeometry relative="1" as="geometry" />
        </mxCell>
        <mxCell id="pssL2T_21H-oMpoKrJ0v-6" style="edgeStyle=orthogonalEdgeStyle;rounded=0;orthogonalLoop=1;jettySize=auto;html=1;exitX=0.5;exitY=0;exitDx=0;exitDy=0;entryX=0.5;entryY=1;entryDx=0;entryDy=0;" edge="1" parent="1" source="4cd8tRVKApYLqjwjLo3V-45" target="pssL2T_21H-oMpoKrJ0v-1">
          <mxGeometry relative="1" as="geometry" />
        </mxCell>
        <mxCell id="4cd8tRVKApYLqjwjLo3V-45" value="" style="ellipse;whiteSpace=wrap;html=1;aspect=fixed;" parent="1" vertex="1">
          <mxGeometry x="660" y="130" width="30" height="30" as="geometry" />
        </mxCell>
        <mxCell id="4cd8tRVKApYLqjwjLo3V-50" style="edgeStyle=none;rounded=0;orthogonalLoop=1;jettySize=auto;html=1;exitX=1;exitY=0.5;exitDx=0;exitDy=0;entryX=0;entryY=0.5;entryDx=0;entryDy=0;" parent="1" source="4cd8tRVKApYLqjwjLo3V-47" target="4cd8tRVKApYLqjwjLo3V-45" edge="1">
          <mxGeometry relative="1" as="geometry" />
        </mxCell>
        <mxCell id="4cd8tRVKApYLqjwjLo3V-47" value="" style="rounded=0;whiteSpace=wrap;html=1;" parent="1" vertex="1">
          <mxGeometry x="556" y="135" width="10" height="20" as="geometry" />
        </mxCell>
        <mxCell id="4cd8tRVKApYLqjwjLo3V-49" value="&lt;span style=&quot;font-size: 10px;&quot;&gt;Check the Remember me box&lt;/span&gt;" style="text;html=1;align=center;verticalAlign=middle;whiteSpace=wrap;rounded=0;" parent="1" vertex="1">
          <mxGeometry x="514" y="103" width="94" height="30" as="geometry" />
        </mxCell>
        <mxCell id="4cd8tRVKApYLqjwjLo3V-121" style="edgeStyle=none;rounded=0;orthogonalLoop=1;jettySize=auto;html=1;exitX=1;exitY=0.5;exitDx=0;exitDy=0;entryX=0;entryY=0.5;entryDx=0;entryDy=0;" parent="1" source="4cd8tRVKApYLqjwjLo3V-51" target="4cd8tRVKApYLqjwjLo3V-117" edge="1">
          <mxGeometry relative="1" as="geometry" />
        </mxCell>
        <mxCell id="pssL2T_21H-oMpoKrJ0v-28" style="edgeStyle=none;rounded=0;orthogonalLoop=1;jettySize=auto;html=1;exitX=0.5;exitY=1;exitDx=0;exitDy=0;entryX=0.5;entryY=0;entryDx=0;entryDy=0;" edge="1" parent="1" source="4cd8tRVKApYLqjwjLo3V-51" target="pssL2T_21H-oMpoKrJ0v-20">
          <mxGeometry relative="1" as="geometry" />
        </mxCell>
        <mxCell id="4cd8tRVKApYLqjwjLo3V-51" value="" style="ellipse;whiteSpace=wrap;html=1;aspect=fixed;" parent="1" vertex="1">
          <mxGeometry x="660" y="213" width="30" height="30" as="geometry" />
        </mxCell>
        <mxCell id="4cd8tRVKApYLqjwjLo3V-52" style="edgeStyle=none;rounded=0;orthogonalLoop=1;jettySize=auto;html=1;exitX=1;exitY=0.5;exitDx=0;exitDy=0;entryX=0;entryY=0.5;entryDx=0;entryDy=0;" parent="1" source="4cd8tRVKApYLqjwjLo3V-53" target="4cd8tRVKApYLqjwjLo3V-51" edge="1">
          <mxGeometry relative="1" as="geometry" />
        </mxCell>
        <mxCell id="4cd8tRVKApYLqjwjLo3V-53" value="" style="rounded=0;whiteSpace=wrap;html=1;" parent="1" vertex="1">
          <mxGeometry x="556" y="218.5" width="10" height="20" as="geometry" />
        </mxCell>
        <mxCell id="4cd8tRVKApYLqjwjLo3V-56" value="&lt;font style=&quot;font-size: 10px;&quot;&gt;Enter username&lt;/font&gt;" style="text;html=1;align=center;verticalAlign=middle;whiteSpace=wrap;rounded=0;" parent="1" vertex="1">
          <mxGeometry x="521" y="165" width="80" height="13" as="geometry" />
        </mxCell>
        <mxCell id="4cd8tRVKApYLqjwjLo3V-60" style="edgeStyle=none;rounded=0;orthogonalLoop=1;jettySize=auto;html=1;exitX=1;exitY=0.5;exitDx=0;exitDy=0;entryX=0;entryY=1;entryDx=0;entryDy=0;" parent="1" source="4cd8tRVKApYLqjwjLo3V-58" target="4cd8tRVKApYLqjwjLo3V-45" edge="1">
          <mxGeometry relative="1" as="geometry" />
        </mxCell>
        <mxCell id="4cd8tRVKApYLqjwjLo3V-58" value="" style="rounded=0;whiteSpace=wrap;html=1;" parent="1" vertex="1">
          <mxGeometry x="556" y="179" width="10" height="20" as="geometry" />
        </mxCell>
        <mxCell id="4cd8tRVKApYLqjwjLo3V-61" value="&lt;font style=&quot;font-size: 10px;&quot;&gt;Enter&amp;nbsp;&lt;/font&gt;&lt;span style=&quot;font-size: 10px; background-color: transparent; color: light-dark(rgb(0, 0, 0), rgb(255, 255, 255));&quot;&gt;password&lt;/span&gt;" style="text;html=1;align=center;verticalAlign=middle;whiteSpace=wrap;rounded=0;" parent="1" vertex="1">
          <mxGeometry x="531" y="205.5" width="60" height="13" as="geometry" />
        </mxCell>
        <mxCell id="4cd8tRVKApYLqjwjLo3V-68" style="edgeStyle=none;rounded=0;orthogonalLoop=1;jettySize=auto;html=1;exitX=1;exitY=0.5;exitDx=0;exitDy=0;entryX=0;entryY=1;entryDx=0;entryDy=0;" parent="1" source="4cd8tRVKApYLqjwjLo3V-64" target="4cd8tRVKApYLqjwjLo3V-51" edge="1">
          <mxGeometry relative="1" as="geometry" />
        </mxCell>
        <mxCell id="4cd8tRVKApYLqjwjLo3V-64" value="" style="rounded=0;whiteSpace=wrap;html=1;" parent="1" vertex="1">
          <mxGeometry x="556" y="257.5" width="10" height="20" as="geometry" />
        </mxCell>
        <mxCell id="4cd8tRVKApYLqjwjLo3V-67" value="&lt;span style=&quot;font-size: 10px;&quot;&gt;Check the Remember me box&lt;/span&gt;" style="text;html=1;align=center;verticalAlign=middle;whiteSpace=wrap;rounded=0;" parent="1" vertex="1">
          <mxGeometry x="486" y="240" width="160" height="20" as="geometry" />
        </mxCell>
        <mxCell id="4cd8tRVKApYLqjwjLo3V-69" value="&lt;font style=&quot;font-size: 10px;&quot;&gt;Username entered and&lt;/font&gt;&lt;div&gt;&lt;font style=&quot;font-size: 10px;&quot;&gt;checkbox checked&lt;/font&gt;&lt;/div&gt;" style="text;html=1;align=center;verticalAlign=middle;whiteSpace=wrap;rounded=0;" parent="1" vertex="1">
          <mxGeometry x="620" y="160" width="120" height="30" as="geometry" />
        </mxCell>
        <mxCell id="4cd8tRVKApYLqjwjLo3V-70" value="&lt;font style=&quot;font-size: 10px;&quot;&gt;Password entered and&lt;/font&gt;&lt;div&gt;&lt;font style=&quot;font-size: 10px;&quot;&gt;checkbox checked&lt;/font&gt;&lt;/div&gt;" style="text;html=1;align=center;verticalAlign=middle;whiteSpace=wrap;rounded=0;" parent="1" vertex="1">
          <mxGeometry x="675" y="205.5" width="120" height="30" as="geometry" />
        </mxCell>
        <mxCell id="4cd8tRVKApYLqjwjLo3V-78" style="edgeStyle=none;rounded=0;orthogonalLoop=1;jettySize=auto;html=1;exitX=0.5;exitY=1;exitDx=0;exitDy=0;entryX=0.5;entryY=0;entryDx=0;entryDy=0;" parent="1" source="4cd8tRVKApYLqjwjLo3V-10" target="4cd8tRVKApYLqjwjLo3V-80" edge="1">
          <mxGeometry relative="1" as="geometry">
            <mxPoint x="400" y="460" as="sourcePoint" />
          </mxGeometry>
        </mxCell>
        <mxCell id="4cd8tRVKApYLqjwjLo3V-79" style="edgeStyle=none;rounded=0;orthogonalLoop=1;jettySize=auto;html=1;exitX=0.5;exitY=1;exitDx=0;exitDy=0;entryX=0.5;entryY=0;entryDx=0;entryDy=0;" parent="1" source="4cd8tRVKApYLqjwjLo3V-80" target="4cd8tRVKApYLqjwjLo3V-82" edge="1">
          <mxGeometry relative="1" as="geometry" />
        </mxCell>
        <mxCell id="4cd8tRVKApYLqjwjLo3V-80" value="" style="rounded=0;whiteSpace=wrap;html=1;" parent="1" vertex="1">
          <mxGeometry x="385" y="350" width="10" height="20" as="geometry" />
        </mxCell>
        <mxCell id="4cd8tRVKApYLqjwjLo3V-81" value="&lt;font style=&quot;font-size: 10px;&quot;&gt;Click Login&lt;/font&gt;" style="text;html=1;align=center;verticalAlign=middle;whiteSpace=wrap;rounded=0;" parent="1" vertex="1">
          <mxGeometry x="395" y="340" width="60" height="20" as="geometry" />
        </mxCell>
        <mxCell id="4cd8tRVKApYLqjwjLo3V-97" style="edgeStyle=none;rounded=0;orthogonalLoop=1;jettySize=auto;html=1;exitX=0;exitY=0;exitDx=0;exitDy=0;entryX=1;entryY=0.75;entryDx=0;entryDy=0;" parent="1" source="4cd8tRVKApYLqjwjLo3V-82" target="4cd8tRVKApYLqjwjLo3V-96" edge="1">
          <mxGeometry relative="1" as="geometry" />
        </mxCell>
        <mxCell id="4cd8tRVKApYLqjwjLo3V-82" value="" style="ellipse;whiteSpace=wrap;html=1;aspect=fixed;" parent="1" vertex="1">
          <mxGeometry x="375" y="400" width="30" height="30" as="geometry" />
        </mxCell>
        <mxCell id="4cd8tRVKApYLqjwjLo3V-83" value="&lt;font style=&quot;font-size: 10px;&quot;&gt;Empty username&amp;nbsp;&lt;/font&gt;&lt;div&gt;&lt;font style=&quot;font-size: 10px;&quot;&gt;message showed&lt;/font&gt;&lt;/div&gt;" style="text;html=1;align=center;verticalAlign=middle;whiteSpace=wrap;rounded=0;" parent="1" vertex="1">
          <mxGeometry x="284" y="400" width="108" height="30" as="geometry" />
        </mxCell>
        <mxCell id="4cd8tRVKApYLqjwjLo3V-92" style="edgeStyle=none;rounded=0;orthogonalLoop=1;jettySize=auto;html=1;exitX=1;exitY=0.75;exitDx=0;exitDy=0;entryX=0;entryY=0;entryDx=0;entryDy=0;" parent="1" source="4cd8tRVKApYLqjwjLo3V-85" target="4cd8tRVKApYLqjwjLo3V-88" edge="1">
          <mxGeometry relative="1" as="geometry" />
        </mxCell>
        <mxCell id="4cd8tRVKApYLqjwjLo3V-85" value="" style="rounded=0;whiteSpace=wrap;html=1;" parent="1" vertex="1">
          <mxGeometry x="471" y="180" width="10" height="20" as="geometry" />
        </mxCell>
        <mxCell id="4cd8tRVKApYLqjwjLo3V-90" style="edgeStyle=none;rounded=0;orthogonalLoop=1;jettySize=auto;html=1;exitX=1;exitY=0.5;exitDx=0;exitDy=0;entryX=0;entryY=0.5;entryDx=0;entryDy=0;" parent="1" source="4cd8tRVKApYLqjwjLo3V-86" target="4cd8tRVKApYLqjwjLo3V-88" edge="1">
          <mxGeometry relative="1" as="geometry" />
        </mxCell>
        <mxCell id="4cd8tRVKApYLqjwjLo3V-86" value="" style="rounded=0;whiteSpace=wrap;html=1;" parent="1" vertex="1">
          <mxGeometry x="471" y="325" width="10" height="20" as="geometry" />
        </mxCell>
        <mxCell id="4cd8tRVKApYLqjwjLo3V-108" style="edgeStyle=none;rounded=0;orthogonalLoop=1;jettySize=auto;html=1;exitX=0.5;exitY=1;exitDx=0;exitDy=0;entryX=0.5;entryY=0;entryDx=0;entryDy=0;" parent="1" source="4cd8tRVKApYLqjwjLo3V-88" target="4cd8tRVKApYLqjwjLo3V-106" edge="1">
          <mxGeometry relative="1" as="geometry" />
        </mxCell>
        <mxCell id="4cd8tRVKApYLqjwjLo3V-137" style="edgeStyle=none;rounded=0;orthogonalLoop=1;jettySize=auto;html=1;exitX=1;exitY=0.5;exitDx=0;exitDy=0;entryX=0;entryY=0.5;entryDx=0;entryDy=0;" parent="1" source="4cd8tRVKApYLqjwjLo3V-88" target="4cd8tRVKApYLqjwjLo3V-135" edge="1">
          <mxGeometry relative="1" as="geometry" />
        </mxCell>
        <mxCell id="4cd8tRVKApYLqjwjLo3V-88" value="" style="ellipse;whiteSpace=wrap;html=1;aspect=fixed;" parent="1" vertex="1">
          <mxGeometry x="566" y="320" width="30" height="30" as="geometry" />
        </mxCell>
        <mxCell id="4cd8tRVKApYLqjwjLo3V-93" value="&lt;font style=&quot;font-size: 10px;&quot;&gt;Enter&amp;nbsp;&lt;/font&gt;&lt;span style=&quot;font-size: 10px; background-color: transparent; color: light-dark(rgb(0, 0, 0), rgb(255, 255, 255));&quot;&gt;password&lt;/span&gt;" style="text;html=1;align=center;verticalAlign=middle;whiteSpace=wrap;rounded=0;" parent="1" vertex="1">
          <mxGeometry x="446" y="166" width="60" height="13" as="geometry" />
        </mxCell>
        <mxCell id="4cd8tRVKApYLqjwjLo3V-94" value="&lt;font style=&quot;font-size: 10px;&quot;&gt;Enter username&lt;/font&gt;" style="text;html=1;align=center;verticalAlign=middle;whiteSpace=wrap;rounded=0;" parent="1" vertex="1">
          <mxGeometry x="438" y="311" width="80" height="13" as="geometry" />
        </mxCell>
        <mxCell id="4cd8tRVKApYLqjwjLo3V-95" value="&lt;font style=&quot;font-size: 10px;&quot;&gt;Username entered and&lt;/font&gt;&lt;div&gt;&lt;font style=&quot;font-size: 10px;&quot;&gt;password entered&lt;/font&gt;&lt;/div&gt;" style="text;html=1;align=center;verticalAlign=middle;whiteSpace=wrap;rounded=0;" parent="1" vertex="1">
          <mxGeometry x="521" y="290" width="120" height="30" as="geometry" />
        </mxCell>
        <mxCell id="4cd8tRVKApYLqjwjLo3V-98" style="edgeStyle=none;rounded=0;orthogonalLoop=1;jettySize=auto;html=1;exitX=1;exitY=0.25;exitDx=0;exitDy=0;entryX=0;entryY=1;entryDx=0;entryDy=0;" parent="1" source="4cd8tRVKApYLqjwjLo3V-96" target="4cd8tRVKApYLqjwjLo3V-10" edge="1">
          <mxGeometry relative="1" as="geometry" />
        </mxCell>
        <mxCell id="4cd8tRVKApYLqjwjLo3V-96" value="" style="rounded=0;whiteSpace=wrap;html=1;" parent="1" vertex="1">
          <mxGeometry x="325" y="350" width="10" height="20" as="geometry" />
        </mxCell>
        <mxCell id="4cd8tRVKApYLqjwjLo3V-99" value="&lt;font style=&quot;font-size: 10px;&quot;&gt;Keep Going&lt;/font&gt;" style="text;html=1;align=center;verticalAlign=middle;whiteSpace=wrap;rounded=0;" parent="1" vertex="1">
          <mxGeometry x="265" y="350" width="60" height="20" as="geometry" />
        </mxCell>
        <mxCell id="4cd8tRVKApYLqjwjLo3V-105" style="edgeStyle=none;rounded=0;orthogonalLoop=1;jettySize=auto;html=1;exitX=1;exitY=0.75;exitDx=0;exitDy=0;entryX=0;entryY=0;entryDx=0;entryDy=0;" parent="1" source="4cd8tRVKApYLqjwjLo3V-100" target="4cd8tRVKApYLqjwjLo3V-4" edge="1">
          <mxGeometry relative="1" as="geometry" />
        </mxCell>
        <mxCell id="4cd8tRVKApYLqjwjLo3V-100" value="" style="rounded=0;whiteSpace=wrap;html=1;" parent="1" vertex="1">
          <mxGeometry x="325" y="83" width="10" height="20" as="geometry" />
        </mxCell>
        <mxCell id="4cd8tRVKApYLqjwjLo3V-101" value="&lt;font style=&quot;font-size: 10px;&quot;&gt;Keep Going&lt;/font&gt;" style="text;html=1;align=center;verticalAlign=middle;whiteSpace=wrap;rounded=0;" parent="1" vertex="1">
          <mxGeometry x="265" y="83" width="60" height="20" as="geometry" />
        </mxCell>
        <mxCell id="4cd8tRVKApYLqjwjLo3V-112" style="edgeStyle=none;rounded=0;orthogonalLoop=1;jettySize=auto;html=1;exitX=0.5;exitY=1;exitDx=0;exitDy=0;entryX=0.5;entryY=0;entryDx=0;entryDy=0;" parent="1" source="4cd8tRVKApYLqjwjLo3V-106" target="4cd8tRVKApYLqjwjLo3V-111" edge="1">
          <mxGeometry relative="1" as="geometry" />
        </mxCell>
        <mxCell id="4cd8tRVKApYLqjwjLo3V-106" value="" style="rounded=0;whiteSpace=wrap;html=1;" parent="1" vertex="1">
          <mxGeometry x="576" y="370" width="10" height="20" as="geometry" />
        </mxCell>
        <mxCell id="4cd8tRVKApYLqjwjLo3V-110" value="&lt;font style=&quot;font-size: 10px;&quot;&gt;Click Login&lt;/font&gt;" style="text;html=1;align=center;verticalAlign=middle;whiteSpace=wrap;rounded=0;" parent="1" vertex="1">
          <mxGeometry x="586" y="370" width="60" height="20" as="geometry" />
        </mxCell>
        <mxCell id="4cd8tRVKApYLqjwjLo3V-159" style="edgeStyle=none;rounded=0;orthogonalLoop=1;jettySize=auto;html=1;exitX=0;exitY=0.5;exitDx=0;exitDy=0;entryX=1;entryY=0.5;entryDx=0;entryDy=0;" parent="1" source="4cd8tRVKApYLqjwjLo3V-111" target="4cd8tRVKApYLqjwjLo3V-157" edge="1">
          <mxGeometry relative="1" as="geometry" />
        </mxCell>
        <mxCell id="4cd8tRVKApYLqjwjLo3V-167" style="edgeStyle=none;rounded=0;orthogonalLoop=1;jettySize=auto;html=1;exitX=1;exitY=0.5;exitDx=0;exitDy=0;entryX=0;entryY=0.5;entryDx=0;entryDy=0;" parent="1" source="4cd8tRVKApYLqjwjLo3V-111" target="4cd8tRVKApYLqjwjLo3V-155" edge="1">
          <mxGeometry relative="1" as="geometry" />
        </mxCell>
        <mxCell id="4cd8tRVKApYLqjwjLo3V-111" value="" style="ellipse;whiteSpace=wrap;html=1;aspect=fixed;" parent="1" vertex="1">
          <mxGeometry x="566" y="410" width="30" height="30" as="geometry" />
        </mxCell>
        <mxCell id="4cd8tRVKApYLqjwjLo3V-115" value="&lt;font style=&quot;font-size: 10px;&quot;&gt;Username and password verified&lt;/font&gt;" style="text;html=1;align=center;verticalAlign=middle;whiteSpace=wrap;rounded=0;" parent="1" vertex="1">
          <mxGeometry x="534" y="440" width="94" height="30" as="geometry" />
        </mxCell>
        <mxCell id="4cd8tRVKApYLqjwjLo3V-126" style="edgeStyle=none;rounded=0;orthogonalLoop=1;jettySize=auto;html=1;exitX=1;exitY=0.5;exitDx=0;exitDy=0;entryX=0;entryY=0;entryDx=0;entryDy=0;" parent="1" source="4cd8tRVKApYLqjwjLo3V-116" target="4cd8tRVKApYLqjwjLo3V-124" edge="1">
          <mxGeometry relative="1" as="geometry" />
        </mxCell>
        <mxCell id="4cd8tRVKApYLqjwjLo3V-116" value="" style="rounded=0;whiteSpace=wrap;html=1;" parent="1" vertex="1">
          <mxGeometry x="790" y="145" width="10" height="20" as="geometry" />
        </mxCell>
        <mxCell id="4cd8tRVKApYLqjwjLo3V-128" style="edgeStyle=none;rounded=0;orthogonalLoop=1;jettySize=auto;html=1;exitX=1;exitY=0.5;exitDx=0;exitDy=0;entryX=0;entryY=0.5;entryDx=0;entryDy=0;" parent="1" source="4cd8tRVKApYLqjwjLo3V-117" target="4cd8tRVKApYLqjwjLo3V-124" edge="1">
          <mxGeometry relative="1" as="geometry" />
        </mxCell>
        <mxCell id="4cd8tRVKApYLqjwjLo3V-117" value="" style="rounded=0;whiteSpace=wrap;html=1;" parent="1" vertex="1">
          <mxGeometry x="790" y="193" width="10" height="20" as="geometry" />
        </mxCell>
        <mxCell id="4cd8tRVKApYLqjwjLo3V-122" value="&lt;font style=&quot;font-size: 10px;&quot;&gt;Enter username&lt;/font&gt;" style="text;html=1;align=center;verticalAlign=middle;whiteSpace=wrap;rounded=0;" parent="1" vertex="1">
          <mxGeometry x="755" y="128" width="80" height="13" as="geometry" />
        </mxCell>
        <mxCell id="4cd8tRVKApYLqjwjLo3V-123" value="&lt;font style=&quot;font-size: 10px;&quot;&gt;Enter&amp;nbsp;&lt;/font&gt;&lt;span style=&quot;font-size: 10px; background-color: transparent; color: light-dark(rgb(0, 0, 0), rgb(255, 255, 255));&quot;&gt;password&lt;/span&gt;" style="text;html=1;align=center;verticalAlign=middle;whiteSpace=wrap;rounded=0;" parent="1" vertex="1">
          <mxGeometry x="765" y="178" width="60" height="13" as="geometry" />
        </mxCell>
        <mxCell id="4cd8tRVKApYLqjwjLo3V-134" style="edgeStyle=none;rounded=0;orthogonalLoop=1;jettySize=auto;html=1;exitX=0.5;exitY=1;exitDx=0;exitDy=0;entryX=0.5;entryY=0;entryDx=0;entryDy=0;" parent="1" source="4cd8tRVKApYLqjwjLo3V-124" target="4cd8tRVKApYLqjwjLo3V-130" edge="1">
          <mxGeometry relative="1" as="geometry" />
        </mxCell>
        <mxCell id="4cd8tRVKApYLqjwjLo3V-124" value="" style="ellipse;whiteSpace=wrap;html=1;aspect=fixed;" parent="1" vertex="1">
          <mxGeometry x="890" y="165" width="30" height="30" as="geometry" />
        </mxCell>
        <mxCell id="4cd8tRVKApYLqjwjLo3V-125" value="&lt;font style=&quot;forced-color-adjust: none; color: rgb(0, 0, 0); font-family: Helvetica; font-style: normal; font-variant-ligatures: normal; font-variant-caps: normal; font-weight: 400; letter-spacing: normal; orphans: 2; text-align: center; text-indent: 0px; text-transform: none; widows: 2; word-spacing: 0px; -webkit-text-stroke-width: 0px; white-space: normal; background-color: rgb(251, 251, 251); text-decoration-thickness: initial; text-decoration-style: initial; text-decoration-color: initial; font-size: 10px;&quot;&gt;Username entered, password entered and&amp;nbsp;&lt;/font&gt;&lt;span style=&quot;background-color: light-dark(rgb(251, 251, 251), rgb(21, 21, 21)); color: light-dark(rgb(0, 0, 0), rgb(237, 237, 237)); font-size: 10px; text-align: center;&quot;&gt;checkbox checked&lt;/span&gt;" style="text;whiteSpace=wrap;html=1;" parent="1" vertex="1">
          <mxGeometry x="920" y="159" width="160" height="34" as="geometry" />
        </mxCell>
        <mxCell id="4cd8tRVKApYLqjwjLo3V-129" style="edgeStyle=none;rounded=0;orthogonalLoop=1;jettySize=auto;html=1;exitX=0.5;exitY=1;exitDx=0;exitDy=0;entryX=0.5;entryY=0;entryDx=0;entryDy=0;" parent="1" source="4cd8tRVKApYLqjwjLo3V-130" target="4cd8tRVKApYLqjwjLo3V-132" edge="1">
          <mxGeometry relative="1" as="geometry" />
        </mxCell>
        <mxCell id="4cd8tRVKApYLqjwjLo3V-130" value="" style="rounded=0;whiteSpace=wrap;html=1;" parent="1" vertex="1">
          <mxGeometry x="900" y="220" width="10" height="20" as="geometry" />
        </mxCell>
        <mxCell id="4cd8tRVKApYLqjwjLo3V-131" value="&lt;font style=&quot;font-size: 10px;&quot;&gt;Click Login&lt;/font&gt;" style="text;html=1;align=center;verticalAlign=middle;whiteSpace=wrap;rounded=0;" parent="1" vertex="1">
          <mxGeometry x="910" y="220" width="60" height="20" as="geometry" />
        </mxCell>
        <mxCell id="4cd8tRVKApYLqjwjLo3V-142" style="edgeStyle=none;rounded=0;orthogonalLoop=1;jettySize=auto;html=1;exitX=0.5;exitY=1;exitDx=0;exitDy=0;entryX=0.5;entryY=0;entryDx=0;entryDy=0;" parent="1" source="4cd8tRVKApYLqjwjLo3V-132" target="4cd8tRVKApYLqjwjLo3V-140" edge="1">
          <mxGeometry relative="1" as="geometry" />
        </mxCell>
        <mxCell id="4cd8tRVKApYLqjwjLo3V-143" style="edgeStyle=none;rounded=0;orthogonalLoop=1;jettySize=auto;html=1;exitX=1;exitY=0.5;exitDx=0;exitDy=0;entryX=0;entryY=0.5;entryDx=0;entryDy=0;" parent="1" source="4cd8tRVKApYLqjwjLo3V-132" target="4cd8tRVKApYLqjwjLo3V-141" edge="1">
          <mxGeometry relative="1" as="geometry" />
        </mxCell>
        <mxCell id="4cd8tRVKApYLqjwjLo3V-132" value="" style="ellipse;whiteSpace=wrap;html=1;aspect=fixed;" parent="1" vertex="1">
          <mxGeometry x="890" y="311" width="30" height="30" as="geometry" />
        </mxCell>
        <mxCell id="4cd8tRVKApYLqjwjLo3V-133" value="&lt;font style=&quot;font-size: 10px;&quot;&gt;Username and password verified&lt;/font&gt;" style="text;html=1;align=center;verticalAlign=middle;whiteSpace=wrap;rounded=0;" parent="1" vertex="1">
          <mxGeometry x="858" y="270.5" width="94" height="30" as="geometry" />
        </mxCell>
        <mxCell id="4cd8tRVKApYLqjwjLo3V-138" style="edgeStyle=none;rounded=0;orthogonalLoop=1;jettySize=auto;html=1;exitX=1;exitY=0.5;exitDx=0;exitDy=0;entryX=0;entryY=1;entryDx=0;entryDy=0;" parent="1" source="4cd8tRVKApYLqjwjLo3V-135" target="4cd8tRVKApYLqjwjLo3V-124" edge="1">
          <mxGeometry relative="1" as="geometry" />
        </mxCell>
        <mxCell id="4cd8tRVKApYLqjwjLo3V-135" value="" style="rounded=0;whiteSpace=wrap;html=1;" parent="1" vertex="1">
          <mxGeometry x="810" y="324" width="10" height="20" as="geometry" />
        </mxCell>
        <mxCell id="4cd8tRVKApYLqjwjLo3V-136" value="&lt;font style=&quot;font-size: 10px;&quot;&gt;Check the Remember me box&lt;/font&gt;" style="text;html=1;align=center;verticalAlign=middle;whiteSpace=wrap;rounded=0;" parent="1" vertex="1">
          <mxGeometry x="747.5" y="345" width="135" height="17" as="geometry" />
        </mxCell>
        <mxCell id="4cd8tRVKApYLqjwjLo3V-139" style="edgeStyle=none;rounded=0;orthogonalLoop=1;jettySize=auto;html=1;exitX=0.5;exitY=0;exitDx=0;exitDy=0;" parent="1" source="4cd8tRVKApYLqjwjLo3V-95" target="4cd8tRVKApYLqjwjLo3V-95" edge="1">
          <mxGeometry relative="1" as="geometry" />
        </mxCell>
        <mxCell id="4cd8tRVKApYLqjwjLo3V-150" style="edgeStyle=none;rounded=0;orthogonalLoop=1;jettySize=auto;html=1;exitX=0;exitY=0.5;exitDx=0;exitDy=0;entryX=1;entryY=0.5;entryDx=0;entryDy=0;" parent="1" source="4cd8tRVKApYLqjwjLo3V-140" target="4cd8tRVKApYLqjwjLo3V-147" edge="1">
          <mxGeometry relative="1" as="geometry" />
        </mxCell>
        <mxCell id="4cd8tRVKApYLqjwjLo3V-140" value="" style="rounded=0;whiteSpace=wrap;html=1;" parent="1" vertex="1">
          <mxGeometry x="900" y="480" width="10" height="20" as="geometry" />
        </mxCell>
        <mxCell id="4cd8tRVKApYLqjwjLo3V-151" style="edgeStyle=none;rounded=0;orthogonalLoop=1;jettySize=auto;html=1;exitX=1;exitY=0.5;exitDx=0;exitDy=0;entryX=0;entryY=0.5;entryDx=0;entryDy=0;" parent="1" source="4cd8tRVKApYLqjwjLo3V-141" target="4cd8tRVKApYLqjwjLo3V-148" edge="1">
          <mxGeometry relative="1" as="geometry" />
        </mxCell>
        <mxCell id="4cd8tRVKApYLqjwjLo3V-141" value="" style="rounded=0;whiteSpace=wrap;html=1;" parent="1" vertex="1">
          <mxGeometry x="994" y="316" width="10" height="20" as="geometry" />
        </mxCell>
        <mxCell id="4cd8tRVKApYLqjwjLo3V-144" value="&lt;font style=&quot;font-size: 10px;&quot;&gt;Waiting for result&lt;/font&gt;" style="text;html=1;align=center;verticalAlign=middle;whiteSpace=wrap;rounded=0;" parent="1" vertex="1">
          <mxGeometry x="952" y="336" width="94" height="20" as="geometry" />
        </mxCell>
        <mxCell id="4cd8tRVKApYLqjwjLo3V-146" value="&lt;font style=&quot;font-size: 10px;&quot;&gt;Waiting for result&lt;/font&gt;" style="text;html=1;align=center;verticalAlign=middle;whiteSpace=wrap;rounded=0;" parent="1" vertex="1">
          <mxGeometry x="910" y="470" width="94" height="20" as="geometry" />
        </mxCell>
        <mxCell id="4cd8tRVKApYLqjwjLo3V-161" style="edgeStyle=none;rounded=0;orthogonalLoop=1;jettySize=auto;html=1;exitX=0.5;exitY=0;exitDx=0;exitDy=0;entryX=0.5;entryY=1;entryDx=0;entryDy=0;" parent="1" source="4cd8tRVKApYLqjwjLo3V-147" target="4cd8tRVKApYLqjwjLo3V-162" edge="1">
          <mxGeometry relative="1" as="geometry">
            <mxPoint x="184.8571428571429" y="380" as="targetPoint" />
          </mxGeometry>
        </mxCell>
        <mxCell id="4cd8tRVKApYLqjwjLo3V-147" value="" style="ellipse;whiteSpace=wrap;html=1;aspect=fixed;" parent="1" vertex="1">
          <mxGeometry x="170" y="475" width="30" height="30" as="geometry" />
        </mxCell>
        <mxCell id="4cd8tRVKApYLqjwjLo3V-148" value="" style="ellipse;whiteSpace=wrap;html=1;aspect=fixed;" parent="1" vertex="1">
          <mxGeometry x="1070" y="311" width="30" height="30" as="geometry" />
        </mxCell>
        <mxCell id="4cd8tRVKApYLqjwjLo3V-149" value="&lt;font style=&quot;font-size: 10px;&quot;&gt;Incorrect username or password message showed&lt;/font&gt;" style="text;html=1;align=center;verticalAlign=middle;whiteSpace=wrap;rounded=0;" parent="1" vertex="1">
          <mxGeometry x="37" y="445" width="133" height="30" as="geometry" />
        </mxCell>
        <mxCell id="4cd8tRVKApYLqjwjLo3V-152" value="&lt;font style=&quot;font-size: 10px;&quot;&gt;Management platform webpage showed, and session&amp;nbsp;expiry time set 1209600&lt;/font&gt;" style="text;html=1;align=center;verticalAlign=middle;whiteSpace=wrap;rounded=0;" parent="1" vertex="1">
          <mxGeometry x="980" y="277.5" width="210" height="30" as="geometry" />
        </mxCell>
        <mxCell id="4cd8tRVKApYLqjwjLo3V-168" style="edgeStyle=none;rounded=0;orthogonalLoop=1;jettySize=auto;html=1;exitX=1;exitY=0.5;exitDx=0;exitDy=0;entryX=0;entryY=0.5;entryDx=0;entryDy=0;" parent="1" source="4cd8tRVKApYLqjwjLo3V-155" target="4cd8tRVKApYLqjwjLo3V-165" edge="1">
          <mxGeometry relative="1" as="geometry" />
        </mxCell>
        <mxCell id="4cd8tRVKApYLqjwjLo3V-155" value="" style="rounded=0;whiteSpace=wrap;html=1;" parent="1" vertex="1">
          <mxGeometry x="675" y="415" width="10" height="20" as="geometry" />
        </mxCell>
        <mxCell id="4cd8tRVKApYLqjwjLo3V-156" value="&lt;font style=&quot;font-size: 10px;&quot;&gt;Waiting for result&lt;/font&gt;" style="text;html=1;align=center;verticalAlign=middle;whiteSpace=wrap;rounded=0;" parent="1" vertex="1">
          <mxGeometry x="633" y="435" width="94" height="20" as="geometry" />
        </mxCell>
        <mxCell id="4cd8tRVKApYLqjwjLo3V-160" style="edgeStyle=none;rounded=0;orthogonalLoop=1;jettySize=auto;html=1;exitX=0;exitY=0.5;exitDx=0;exitDy=0;entryX=1;entryY=0;entryDx=0;entryDy=0;" parent="1" source="4cd8tRVKApYLqjwjLo3V-157" target="4cd8tRVKApYLqjwjLo3V-147" edge="1">
          <mxGeometry relative="1" as="geometry" />
        </mxCell>
        <mxCell id="4cd8tRVKApYLqjwjLo3V-157" value="" style="rounded=0;whiteSpace=wrap;html=1;" parent="1" vertex="1">
          <mxGeometry x="409" y="440" width="10" height="20" as="geometry" />
        </mxCell>
        <mxCell id="4cd8tRVKApYLqjwjLo3V-158" value="&lt;font style=&quot;font-size: 10px;&quot;&gt;Waiting for result&lt;/font&gt;" style="text;html=1;align=center;verticalAlign=middle;whiteSpace=wrap;rounded=0;" parent="1" vertex="1">
          <mxGeometry x="412" y="450" width="94" height="20" as="geometry" />
        </mxCell>
        <mxCell id="4cd8tRVKApYLqjwjLo3V-163" style="edgeStyle=none;rounded=0;orthogonalLoop=1;jettySize=auto;html=1;exitX=0.5;exitY=0;exitDx=0;exitDy=0;entryX=0.5;entryY=1;entryDx=0;entryDy=0;" parent="1" source="4cd8tRVKApYLqjwjLo3V-162" target="4cd8tRVKApYLqjwjLo3V-1" edge="1">
          <mxGeometry relative="1" as="geometry" />
        </mxCell>
        <mxCell id="4cd8tRVKApYLqjwjLo3V-162" value="" style="rounded=0;whiteSpace=wrap;html=1;" parent="1" vertex="1">
          <mxGeometry x="180" y="350" width="10" height="20" as="geometry" />
        </mxCell>
        <mxCell id="4cd8tRVKApYLqjwjLo3V-164" value="&lt;font style=&quot;font-size: 10px;&quot;&gt;Refresh the page&lt;/font&gt;" style="text;html=1;align=center;verticalAlign=middle;whiteSpace=wrap;rounded=0;" parent="1" vertex="1">
          <mxGeometry x="93.5" y="350" width="86.5" height="20" as="geometry" />
        </mxCell>
        <mxCell id="4cd8tRVKApYLqjwjLo3V-165" value="" style="ellipse;whiteSpace=wrap;html=1;aspect=fixed;" parent="1" vertex="1">
          <mxGeometry x="770" y="410" width="30" height="30" as="geometry" />
        </mxCell>
        <mxCell id="4cd8tRVKApYLqjwjLo3V-166" value="&lt;font style=&quot;font-size: 10px;&quot;&gt;Management platform webpage showed, and session&amp;nbsp;expiry time set 0&lt;/font&gt;" style="text;html=1;align=center;verticalAlign=middle;whiteSpace=wrap;rounded=0;" parent="1" vertex="1">
          <mxGeometry x="695" y="380" width="180" height="30" as="geometry" />
        </mxCell>
        <mxCell id="pssL2T_21H-oMpoKrJ0v-1" value="" style="rounded=0;whiteSpace=wrap;html=1;" vertex="1" parent="1">
          <mxGeometry x="670" y="80" width="10" height="20" as="geometry" />
        </mxCell>
        <mxCell id="pssL2T_21H-oMpoKrJ0v-2" value="&lt;font style=&quot;font-size: 10px;&quot;&gt;Click Login&lt;/font&gt;" style="text;html=1;align=center;verticalAlign=middle;whiteSpace=wrap;rounded=0;" vertex="1" parent="1">
          <mxGeometry x="610" y="78.5" width="60" height="21.5" as="geometry" />
        </mxCell>
        <mxCell id="pssL2T_21H-oMpoKrJ0v-3" style="edgeStyle=none;rounded=0;orthogonalLoop=1;jettySize=auto;html=1;exitX=0.5;exitY=0;exitDx=0;exitDy=0;entryX=0.5;entryY=1;entryDx=0;entryDy=0;" edge="1" source="pssL2T_21H-oMpoKrJ0v-1" target="pssL2T_21H-oMpoKrJ0v-4" parent="1">
          <mxGeometry relative="1" as="geometry" />
        </mxCell>
        <mxCell id="pssL2T_21H-oMpoKrJ0v-10" style="edgeStyle=none;rounded=0;orthogonalLoop=1;jettySize=auto;html=1;exitX=1;exitY=1;exitDx=0;exitDy=0;entryX=0;entryY=0.25;entryDx=0;entryDy=0;" edge="1" parent="1" source="pssL2T_21H-oMpoKrJ0v-4" target="pssL2T_21H-oMpoKrJ0v-7">
          <mxGeometry relative="1" as="geometry" />
        </mxCell>
        <mxCell id="pssL2T_21H-oMpoKrJ0v-4" value="" style="ellipse;whiteSpace=wrap;html=1;aspect=fixed;" vertex="1" parent="1">
          <mxGeometry x="660" y="20" width="30" height="30" as="geometry" />
        </mxCell>
        <mxCell id="pssL2T_21H-oMpoKrJ0v-5" value="&lt;font style=&quot;font-size: 10px;&quot;&gt;Empty password&amp;nbsp; message showed&lt;/font&gt;" style="text;html=1;align=center;verticalAlign=middle;whiteSpace=wrap;rounded=0;" vertex="1" parent="1">
          <mxGeometry x="675" width="108" height="30" as="geometry" />
        </mxCell>
        <mxCell id="pssL2T_21H-oMpoKrJ0v-11" style="edgeStyle=none;rounded=0;orthogonalLoop=1;jettySize=auto;html=1;exitX=0;exitY=0.75;exitDx=0;exitDy=0;entryX=1;entryY=0;entryDx=0;entryDy=0;" edge="1" parent="1" source="pssL2T_21H-oMpoKrJ0v-7" target="4cd8tRVKApYLqjwjLo3V-45">
          <mxGeometry relative="1" as="geometry" />
        </mxCell>
        <mxCell id="pssL2T_21H-oMpoKrJ0v-7" value="" style="rounded=0;whiteSpace=wrap;html=1;" vertex="1" parent="1">
          <mxGeometry x="730" y="80" width="10" height="20" as="geometry" />
        </mxCell>
        <mxCell id="pssL2T_21H-oMpoKrJ0v-8" value="&lt;font style=&quot;font-size: 10px;&quot;&gt;Keep Going&lt;/font&gt;" style="text;html=1;align=center;verticalAlign=middle;whiteSpace=wrap;rounded=0;" vertex="1" parent="1">
          <mxGeometry x="740" y="78.5" width="60" height="20" as="geometry" />
        </mxCell>
        <mxCell id="pssL2T_21H-oMpoKrJ0v-31" style="edgeStyle=none;rounded=0;orthogonalLoop=1;jettySize=auto;html=1;exitX=0.5;exitY=1;exitDx=0;exitDy=0;entryX=0.5;entryY=0;entryDx=0;entryDy=0;" edge="1" parent="1" source="pssL2T_21H-oMpoKrJ0v-20" target="pssL2T_21H-oMpoKrJ0v-24">
          <mxGeometry relative="1" as="geometry" />
        </mxCell>
        <mxCell id="pssL2T_21H-oMpoKrJ0v-20" value="" style="rounded=0;whiteSpace=wrap;html=1;" vertex="1" parent="1">
          <mxGeometry x="670" y="260" width="10" height="20" as="geometry" />
        </mxCell>
        <mxCell id="pssL2T_21H-oMpoKrJ0v-21" value="&lt;font style=&quot;font-size: 10px;&quot;&gt;Click Login&lt;/font&gt;" style="text;html=1;align=center;verticalAlign=middle;whiteSpace=wrap;rounded=0;" vertex="1" parent="1">
          <mxGeometry x="615" y="258.5" width="60" height="21.5" as="geometry" />
        </mxCell>
        <mxCell id="pssL2T_21H-oMpoKrJ0v-34" style="edgeStyle=none;rounded=0;orthogonalLoop=1;jettySize=auto;html=1;exitX=1;exitY=0;exitDx=0;exitDy=0;entryX=0;entryY=0.75;entryDx=0;entryDy=0;" edge="1" parent="1" source="pssL2T_21H-oMpoKrJ0v-24" target="pssL2T_21H-oMpoKrJ0v-26">
          <mxGeometry relative="1" as="geometry" />
        </mxCell>
        <mxCell id="pssL2T_21H-oMpoKrJ0v-24" value="" style="ellipse;whiteSpace=wrap;html=1;aspect=fixed;" vertex="1" parent="1">
          <mxGeometry x="660" y="295" width="30" height="30" as="geometry" />
        </mxCell>
        <mxCell id="pssL2T_21H-oMpoKrJ0v-25" value="&lt;font style=&quot;font-size: 10px;&quot;&gt;Empty password&amp;nbsp; message showed&lt;/font&gt;" style="text;html=1;align=center;verticalAlign=middle;whiteSpace=wrap;rounded=0;" vertex="1" parent="1">
          <mxGeometry x="626" y="320.5" width="108" height="30" as="geometry" />
        </mxCell>
        <mxCell id="pssL2T_21H-oMpoKrJ0v-33" style="edgeStyle=none;rounded=0;orthogonalLoop=1;jettySize=auto;html=1;exitX=0;exitY=0.25;exitDx=0;exitDy=0;entryX=1;entryY=1;entryDx=0;entryDy=0;" edge="1" parent="1" source="pssL2T_21H-oMpoKrJ0v-26" target="4cd8tRVKApYLqjwjLo3V-51">
          <mxGeometry relative="1" as="geometry" />
        </mxCell>
        <mxCell id="pssL2T_21H-oMpoKrJ0v-26" value="" style="rounded=0;whiteSpace=wrap;html=1;" vertex="1" parent="1">
          <mxGeometry x="710" y="260" width="10" height="20" as="geometry" />
        </mxCell>
        <mxCell id="pssL2T_21H-oMpoKrJ0v-27" value="&lt;font style=&quot;font-size: 10px;&quot;&gt;Keep Going&lt;/font&gt;" style="text;html=1;align=center;verticalAlign=middle;whiteSpace=wrap;rounded=0;" vertex="1" parent="1">
          <mxGeometry x="720" y="259.25" width="60" height="20" as="geometry" />
        </mxCell>
      </root>
    </mxGraphModel>
  </diagram>
</mxfile>
